<?xml version="1.0" standalone="no"?>
<!DOCTYPE svg PUBLIC "-//W3C//DTD SVG 20010904//EN"
 "http://www.w3.org/TR/2001/REC-SVG-20010904/DTD/svg10.dtd">
<svg version="1.0" xmlns="http://www.w3.org/2000/svg"
 width="500.000000pt" height="500.000000pt" viewBox="0 0 500.000000 500.000000"
 preserveAspectRatio="xMidYMid meet">
<metadata>
Created by potrace 1.14, written by Peter Selinger 2001-2017
</metadata>
<g transform="translate(0.000000,500.000000) scale(0.100000,-0.100000)"
fill="#000000" stroke="none">
<path d="M2369 4000 c-240 -38 -477 -133 -671 -270 -113 -79 -283 -246 -366
-359 -65 -88 -170 -284 -204 -379 -125 -354 -130 -693 -17 -1040 23 -69 42
-94 64 -86 21 8 19 29 -10 115 -63 185 -89 435 -65 634 7 59 16 119 21 133 6
20 7 16 3 -17 -24 -176 -19 -386 11 -519 109 -477 424 -843 875 -1018 166 -64
432 -100 604 -83 349 35 637 171 879 413 64 64 78 75 47 37 -61 -74 -196 -191
-305 -263 -339 -224 -740 -294 -1130 -197 -225 56 -419 166 -600 341 -103 99
-135 115 -135 70 0 -31 114 -146 229 -233 116 -87 278 -172 406 -212 149 -47
224 -59 405 -64 158 -5 187 -3 305 20 616 118 1102 605 1231 1233 22 109 26
155 26 299 0 201 -16 308 -72 476 -162 489 -554 844 -1047 949 -111 24 -388
35 -484 20z m406 -70 c585 -96 1020 -537 1126 -1140 36 -209 15 -462 -57 -691
-14 -45 -27 -79 -29 -77 -2 2 8 41 21 88 43 146 57 267 51 445 -7 220 -45 371
-141 566 -93 187 -257 382 -426 503 -174 126 -399 219 -605 251 -145 23 -380
17 -510 -13 -231 -54 -456 -165 -604 -298 -28 -25 -51 -43 -51 -39 0 10 16 24
107 98 329 265 720 373 1118 307z m-1275 -463 c0 -2 -12 -14 -27 -28 l-28 -24
24 28 c23 25 31 32 31 24z m2193 -528 c20 -5 37 -12 37 -14 0 -2 -13 -25 -29
-49 -15 -25 -57 -107 -91 -183 -35 -76 -76 -159 -92 -185 -15 -27 -24 -48 -20
-48 4 0 34 16 67 36 80 49 100 55 130 44 24 -9 65 -63 65 -86 0 -7 -40 -13
-107 -17 -60 -4 -146 -16 -193 -27 -84 -21 -130 -20 -156 1 -11 9 -6 20 27 57
22 26 64 89 93 142 77 138 155 290 149 290 -26 0 -141 -38 -195 -65 l-67 -34
-11 33 c-13 40 -1 80 30 96 53 28 273 34 363 9z m-811 -90 c20 -11 33 -67 24
-103 -6 -24 -5 -24 46 -19 91 9 104 -25 84 -204 -9 -72 -8 -73 14 -73 31 0 83
58 99 111 7 24 13 76 13 116 0 61 3 73 17 73 29 0 84 -19 93 -32 22 -36 -7
-326 -43 -422 -41 -112 -140 -155 -246 -107 -38 18 -82 65 -71 76 3 3 24 -2
48 -10 115 -40 169 5 186 156 l7 64 -34 -50 c-44 -64 -90 -89 -142 -74 -68 19
-75 45 -62 230 6 76 5 108 -4 113 -6 4 -11 1 -11 -9 0 -9 -5 -69 -11 -133 -7
-81 -7 -131 0 -162 12 -53 -1 -70 -56 -70 -49 0 -73 29 -73 88 l0 47 -33 -59
c-40 -71 -75 -100 -122 -100 -75 0 -130 73 -130 174 1 128 83 222 197 224 36
1 52 -4 72 -23 14 -14 28 -22 30 -20 3 2 7 51 10 109 3 58 6 107 6 109 0 6 73
-10 92 -20z m-1745 -51 c-3 -8 -6 -5 -6 6 -1 11 2 17 5 13 3 -3 4 -12 1 -19z
m563 -95 c0 -58 -32 -73 -155 -73 l-97 0 32 -30 c32 -30 33 -32 27 -95 -7 -74
-11 -72 81 -50 35 8 67 13 72 10 5 -3 18 10 29 29 42 67 149 115 228 103 70
-12 123 -88 123 -177 0 -42 -38 -127 -71 -157 -65 -60 -196 -84 -248 -46 -36
26 -71 99 -71 148 l0 41 -72 -4 c-40 -3 -77 -9 -81 -16 -4 -6 -6 -59 -4 -118
4 -118 4 -118 -58 -118 -73 0 -81 38 -60 260 18 181 16 212 -11 189 -14 -11
-18 -10 -31 6 -21 30 -12 68 20 83 16 8 91 17 173 22 81 5 149 11 152 14 13
13 22 4 22 -21z m680 -75 c89 -61 95 -201 13 -298 -60 -72 -190 -102 -258 -60
-58 36 -85 118 -65 199 26 108 117 179 231 181 32 0 56 -7 79 -22z m1421 -645
c-12 -20 -14 -14 -5 12 4 9 9 14 11 11 3 -2 0 -13 -6 -23z m-50 -112 c-17 -34
-33 -61 -36 -61 -3 0 10 29 27 65 18 35 34 63 36 61 2 -2 -11 -31 -27 -65z
m-111 -185 c0 -2 -8 -10 -17 -17 -16 -13 -17 -12 -4 4 13 16 21 21 21 13z
m-30 -40 c0 -2 -8 -10 -17 -17 -16 -13 -17 -12 -4 4 13 16 21 21 21 13z"/>
<path d="M2641 2615 c-37 -32 -55 -84 -48 -142 8 -74 61 -108 101 -64 23 25
66 143 66 179 0 16 -5 33 -12 40 -21 21 -74 14 -107 -13z"/>
<path d="M1832 2524 c-82 -58 -88 -264 -7 -264 52 0 95 77 95 170 0 43 -5 64
-21 84 -24 30 -36 32 -67 10z"/>
<path d="M2241 2574 c-58 -41 -82 -185 -40 -238 11 -14 29 -26 38 -26 51 0
110 123 96 198 -14 76 -47 99 -94 66z"/>
</g>
</svg>
